<svg width="52" height="46" viewBox="0 0 52 46" fill="none" xmlns="http://www.w3.org/2000/svg">
<path d="M26 19.0667V44.6667M26 19.0667C26 13.0928 26 10.1058 24.8373 7.82411C23.8147 5.81704 22.1829 4.18525 20.1759 3.16259C17.8942 2 14.9072 2 8.93333 2H6.26667C4.7732 2 4.02645 2 3.45603 2.29064C2.95427 2.54632 2.54632 2.95427 2.29064 3.45603C2 4.02645 2 4.7732 2 6.26667V35.0667C2 36.5603 2 37.3069 2.29064 37.8773C2.54632 38.3792 2.95427 38.7869 3.45603 39.0427C4.02645 39.3333 4.7732 39.3333 6.26667 39.3333H14.1245C15.565 39.3333 16.2852 39.3333 16.9817 39.4576C17.5999 39.5677 18.2029 39.7501 18.7784 40.0016C19.4268 40.2845 20.0261 40.684 21.2245 41.4832L26 44.6667M26 19.0667C26 13.0928 26 10.1058 27.1627 7.82411C28.1853 5.81704 29.8171 4.18525 31.824 3.16259C34.1059 2 37.0928 2 43.0667 2H45.7333C47.2269 2 47.9736 2 48.544 2.29064C49.0459 2.54632 49.4536 2.95427 49.7093 3.45603C50 4.02645 50 4.7732 50 6.26667V35.0667C50 36.5603 50 37.3069 49.7093 37.8773C49.4536 38.3792 49.0459 38.7869 48.544 39.0427C47.9736 39.3333 47.2269 39.3333 45.7333 39.3333H37.8755C36.4349 39.3333 35.7147 39.3333 35.0184 39.4576C34.4 39.5677 33.7971 39.7501 33.2216 40.0016C32.5733 40.2845 31.9739 40.684 30.7755 41.4832L26 44.6667" stroke="#ABABAB" stroke-width="2.5" stroke-linecap="round" stroke-linejoin="round"/>
</svg>
