<svg width="39" height="49" viewBox="0 0 39 49" fill="none" xmlns="http://www.w3.org/2000/svg">
<path d="M2 42V10C2 7.19975 2 5.7996 2.47685 4.73005C2.89628 3.78923 3.56557 3.02432 4.38879 2.54497C5.32465 2 6.54978 2 9 2H30C32.4502 2 33.6754 2 34.6113 2.54497C35.4344 3.02432 36.1038 3.78923 36.5231 4.73005C37 5.7996 37 7.19975 37 10V37H6.375C3.95875 37 2 39.2385 2 42ZM2 42C2 44.7615 3.95875 47 6.375 47H37M12.9375 12H26.0625M12.9375 22H26.0625M34.8125 37V47" stroke="#ABABAB" stroke-width="2.5" stroke-linecap="round" stroke-linejoin="round"/>
</svg>
