<svg width="45" height="45" viewBox="0 0 45 45" fill="none" xmlns="http://www.w3.org/2000/svg">
<path d="M19.7656 6.34137e-07C19.2867 0.000254982 18.8783 0.347127 18.8006 0.819676L17.849 6.6453C16.7048 6.97813 15.6137 7.42722 14.5853 7.98658L9.77771 4.55311C9.38903 4.27559 8.85678 4.3192 8.51847 4.65629L4.71211 8.45851C4.37634 8.79449 4.33041 9.32306 4.60319 9.71191L7.98535 14.5497C7.41731 15.584 6.95824 16.6811 6.6172 17.8361L0.815921 18.801C0.344848 18.8803 -5.70691e-05 19.2882 1.63157e-06 19.7658V25.1463C-0.000859311 25.6209 0.339096 26.0277 0.806372 26.1112L6.61146 27.1391C6.95065 28.292 7.40682 29.39 7.97579 30.4254L4.55159 35.2155C4.27404 35.6041 4.31766 36.1363 4.65478 36.4746L8.45923 40.2807C8.79446 40.616 9.32189 40.6626 9.71083 40.3915L14.5586 36.9981C15.59 37.5608 16.6837 38.0132 17.8318 38.349L18.8006 44.1822C18.8791 44.654 19.2873 44.9999 19.7656 45H25.1465C25.6218 45.0007 26.0288 44.6598 26.1115 44.1918L27.149 38.3356C28.2924 37.9947 29.3811 37.5356 30.407 36.9695L35.2873 40.3934C35.6761 40.6661 36.2048 40.6202 36.5408 40.2845L40.3452 36.4765C40.6838 36.1372 40.7267 35.6025 40.4465 35.2136L36.9669 30.3834C37.5232 29.3625 37.9714 28.2804 38.3045 27.1448L44.1917 26.1131C44.6597 26.0304 45.0007 25.6234 45 25.1482V19.7677C44.9997 19.2888 44.6528 18.8805 44.1803 18.8028L38.3026 17.8418C37.9673 16.7075 37.5179 15.6274 36.9612 14.607L40.393 9.71763C40.6658 9.32878 40.6198 8.80021 40.2841 8.46424L36.4777 4.6601C36.1384 4.32151 35.6036 4.27863 35.2147 4.55883L30.3975 8.02288C29.3711 7.45904 28.2817 7.00237 27.1357 6.66439L26.1115 0.810118C26.0296 0.341365 25.6224 -0.000537409 25.1465 6.34137e-07H19.7656ZM20.5987 1.95652H24.3248L25.2994 7.51847C25.3656 7.89959 25.6502 8.20589 26.0255 8.29994C27.4563 8.65648 28.8001 9.22163 30.0267 9.96413C30.362 10.1672 30.7861 10.1507 31.1044 9.92209L35.6828 6.63192L38.3178 9.26673L35.0579 13.9116C34.8355 14.2281 34.8205 14.646 35.0197 14.9777C35.755 16.2014 36.3126 17.5367 36.6688 18.9595C36.7636 19.3383 37.0745 19.6244 37.4599 19.6875L43.0433 20.6008V24.3266L37.4484 25.3087C37.0669 25.3762 36.7612 25.6624 36.6688 26.0385C36.3167 27.4596 35.7587 28.7948 35.0236 30.0185C34.8219 30.3536 34.8391 30.7766 35.0675 31.0942L38.3732 35.6817L35.7382 38.3184L31.1006 35.0645C30.7824 34.8416 30.3625 34.8282 30.0306 35.0301C28.8101 35.7726 27.4649 36.3404 26.0389 36.702C25.6654 36.7961 25.382 37.1005 25.3147 37.4796L24.3268 43.0435H20.5949L19.6739 37.5044C19.6098 37.1193 19.3229 36.8092 18.944 36.7153C17.5123 36.3625 16.1624 35.7982 14.9274 35.0569C14.5962 34.8585 14.1792 34.8735 13.8631 35.0951L9.2618 38.3184L6.62486 35.6778L9.87709 31.1324C10.1043 30.814 10.12 30.391 9.91722 30.0567C9.16779 28.8184 8.601 27.4688 8.24333 26.0309C8.14985 25.6568 7.8453 25.3725 7.46562 25.3048L1.95671 24.3266V20.5951L7.4618 19.6798C7.84641 19.6161 8.15644 19.3301 8.25097 18.9519C8.61172 17.509 9.17823 16.1596 9.92486 14.9242C10.126 14.5928 10.1125 14.1739 9.89046 13.8561L6.67644 9.26289L9.3153 6.62617L13.8764 9.88577C14.1936 10.1119 14.6146 10.1284 14.9484 9.9278C16.1769 9.19005 17.5299 8.63028 18.9631 8.2789C19.3439 8.18514 19.632 7.87305 19.6949 7.48597L20.5987 1.95652ZM22.5 14.6739C18.189 14.6739 14.6732 18.1894 14.6732 22.5C14.6732 26.8106 18.189 30.3261 22.5 30.3261C26.811 30.3261 30.3267 26.8106 30.3267 22.5C30.3267 18.1894 26.811 14.6739 22.5 14.6739ZM22.5 16.6304C25.7535 16.6304 28.3701 19.2467 28.3701 22.5C28.3701 25.7533 25.7535 28.3696 22.5 28.3696C19.2465 28.3696 16.6299 25.7533 16.6299 22.5C16.6299 19.2467 19.2465 16.6304 22.5 16.6304Z" fill="#ABABAB"/>
</svg>
